<mxfile host="app.diagrams.net" modified="2024-04-23T18:09:23.686Z" agent="Mozilla/5.0 (Windows NT 10.0; Win64; x64) AppleWebKit/537.36 (KHTML, like Gecko) Chrome/124.0.0.0 Safari/537.36" etag="cE7NgtKlM-yi340sg8i2" version="24.2.7" type="device">
  <diagram id="bc47vRQSer-DN1HRI0ml" name="Page-1">
    <mxGraphModel dx="882" dy="578" grid="1" gridSize="10" guides="1" tooltips="1" connect="1" arrows="1" fold="1" page="1" pageScale="1" pageWidth="850" pageHeight="1100" math="0" shadow="0">
      <root>
        <mxCell id="0" />
        <mxCell id="1" parent="0" />
        <mxCell id="rOqVH5WVeWpcV2ABpAKw-1" value="" style="swimlane;startSize=0;" vertex="1" parent="1">
          <mxGeometry x="80" y="120" width="720" height="120" as="geometry" />
        </mxCell>
        <mxCell id="rOqVH5WVeWpcV2ABpAKw-4" value="WebSocket 1" style="rounded=1;whiteSpace=wrap;html=1;" vertex="1" parent="rOqVH5WVeWpcV2ABpAKw-1">
          <mxGeometry x="160" y="40" width="80" height="40" as="geometry" />
        </mxCell>
        <mxCell id="rOqVH5WVeWpcV2ABpAKw-10" value="WebSocket 5" style="rounded=1;whiteSpace=wrap;html=1;" vertex="1" parent="rOqVH5WVeWpcV2ABpAKw-1">
          <mxGeometry x="480" y="40" width="80" height="40" as="geometry" />
        </mxCell>
        <mxCell id="rOqVH5WVeWpcV2ABpAKw-36" value="WebSocket servers" style="text;html=1;align=center;verticalAlign=middle;whiteSpace=wrap;rounded=0;" vertex="1" parent="rOqVH5WVeWpcV2ABpAKw-1">
          <mxGeometry x="600" width="120" height="30" as="geometry" />
        </mxCell>
        <mxCell id="rOqVH5WVeWpcV2ABpAKw-2" value="" style="swimlane;startSize=0;" vertex="1" parent="1">
          <mxGeometry x="80" y="280" width="720" height="120" as="geometry" />
        </mxCell>
        <mxCell id="rOqVH5WVeWpcV2ABpAKw-11" value="Channel 1" style="rounded=1;whiteSpace=wrap;html=1;" vertex="1" parent="rOqVH5WVeWpcV2ABpAKw-2">
          <mxGeometry x="160" y="40" width="80" height="40" as="geometry" />
        </mxCell>
        <mxCell id="rOqVH5WVeWpcV2ABpAKw-12" value="Channel 5" style="rounded=1;whiteSpace=wrap;html=1;" vertex="1" parent="rOqVH5WVeWpcV2ABpAKw-2">
          <mxGeometry x="480" y="40" width="80" height="40" as="geometry" />
        </mxCell>
        <mxCell id="rOqVH5WVeWpcV2ABpAKw-37" value="Redis Pub/Sub" style="text;html=1;align=center;verticalAlign=middle;whiteSpace=wrap;rounded=0;" vertex="1" parent="rOqVH5WVeWpcV2ABpAKw-2">
          <mxGeometry x="600" width="120" height="30" as="geometry" />
        </mxCell>
        <mxCell id="rOqVH5WVeWpcV2ABpAKw-3" value="" style="swimlane;startSize=0;" vertex="1" parent="1">
          <mxGeometry x="80" y="440" width="720" height="120" as="geometry" />
        </mxCell>
        <mxCell id="rOqVH5WVeWpcV2ABpAKw-14" value="WebSocket 2" style="rounded=1;whiteSpace=wrap;html=1;" vertex="1" parent="rOqVH5WVeWpcV2ABpAKw-3">
          <mxGeometry x="80" y="40" width="80" height="40" as="geometry" />
        </mxCell>
        <mxCell id="rOqVH5WVeWpcV2ABpAKw-15" value="WebSocket 6" style="rounded=1;whiteSpace=wrap;html=1;" vertex="1" parent="rOqVH5WVeWpcV2ABpAKw-3">
          <mxGeometry x="560" y="40" width="80" height="40" as="geometry" />
        </mxCell>
        <mxCell id="rOqVH5WVeWpcV2ABpAKw-16" value="WebSocket 3" style="rounded=1;whiteSpace=wrap;html=1;" vertex="1" parent="rOqVH5WVeWpcV2ABpAKw-3">
          <mxGeometry x="240" y="40" width="80" height="40" as="geometry" />
        </mxCell>
        <mxCell id="rOqVH5WVeWpcV2ABpAKw-17" value="WebSocket 4" style="rounded=1;whiteSpace=wrap;html=1;" vertex="1" parent="rOqVH5WVeWpcV2ABpAKw-3">
          <mxGeometry x="400" y="40" width="80" height="40" as="geometry" />
        </mxCell>
        <mxCell id="rOqVH5WVeWpcV2ABpAKw-38" value="WebSocket servers" style="text;html=1;align=center;verticalAlign=middle;whiteSpace=wrap;rounded=0;" vertex="1" parent="rOqVH5WVeWpcV2ABpAKw-3">
          <mxGeometry x="600" width="120" height="30" as="geometry" />
        </mxCell>
        <mxCell id="rOqVH5WVeWpcV2ABpAKw-22" style="edgeStyle=orthogonalEdgeStyle;rounded=0;orthogonalLoop=1;jettySize=auto;html=1;exitX=0.5;exitY=1;exitDx=0;exitDy=0;" edge="1" parent="1" source="rOqVH5WVeWpcV2ABpAKw-7" target="rOqVH5WVeWpcV2ABpAKw-4">
          <mxGeometry relative="1" as="geometry" />
        </mxCell>
        <mxCell id="rOqVH5WVeWpcV2ABpAKw-7" value="User 1" style="rounded=1;whiteSpace=wrap;html=1;" vertex="1" parent="1">
          <mxGeometry x="240" y="40" width="80" height="40" as="geometry" />
        </mxCell>
        <mxCell id="rOqVH5WVeWpcV2ABpAKw-23" style="edgeStyle=orthogonalEdgeStyle;rounded=0;orthogonalLoop=1;jettySize=auto;html=1;exitX=0.5;exitY=1;exitDx=0;exitDy=0;entryX=0.5;entryY=0;entryDx=0;entryDy=0;" edge="1" parent="1" source="rOqVH5WVeWpcV2ABpAKw-8" target="rOqVH5WVeWpcV2ABpAKw-10">
          <mxGeometry relative="1" as="geometry" />
        </mxCell>
        <mxCell id="rOqVH5WVeWpcV2ABpAKw-8" value="User 5" style="rounded=1;whiteSpace=wrap;html=1;" vertex="1" parent="1">
          <mxGeometry x="560" y="40" width="80" height="40" as="geometry" />
        </mxCell>
        <mxCell id="rOqVH5WVeWpcV2ABpAKw-18" value="User 2" style="rounded=1;whiteSpace=wrap;html=1;" vertex="1" parent="1">
          <mxGeometry x="160" y="600" width="80" height="40" as="geometry" />
        </mxCell>
        <mxCell id="rOqVH5WVeWpcV2ABpAKw-19" value="User 3" style="rounded=1;whiteSpace=wrap;html=1;" vertex="1" parent="1">
          <mxGeometry x="320" y="600" width="80" height="40" as="geometry" />
        </mxCell>
        <mxCell id="rOqVH5WVeWpcV2ABpAKw-20" value="User 4" style="rounded=1;whiteSpace=wrap;html=1;" vertex="1" parent="1">
          <mxGeometry x="480" y="600" width="80" height="40" as="geometry" />
        </mxCell>
        <mxCell id="rOqVH5WVeWpcV2ABpAKw-21" value="User 6" style="rounded=1;whiteSpace=wrap;html=1;" vertex="1" parent="1">
          <mxGeometry x="640" y="600" width="80" height="40" as="geometry" />
        </mxCell>
        <mxCell id="rOqVH5WVeWpcV2ABpAKw-24" style="edgeStyle=orthogonalEdgeStyle;rounded=0;orthogonalLoop=1;jettySize=auto;html=1;exitX=0.5;exitY=1;exitDx=0;exitDy=0;entryX=0.5;entryY=0;entryDx=0;entryDy=0;" edge="1" parent="1" source="rOqVH5WVeWpcV2ABpAKw-4" target="rOqVH5WVeWpcV2ABpAKw-11">
          <mxGeometry relative="1" as="geometry" />
        </mxCell>
        <mxCell id="rOqVH5WVeWpcV2ABpAKw-25" style="edgeStyle=orthogonalEdgeStyle;rounded=0;orthogonalLoop=1;jettySize=auto;html=1;exitX=0.5;exitY=1;exitDx=0;exitDy=0;entryX=0.5;entryY=0;entryDx=0;entryDy=0;" edge="1" parent="1" source="rOqVH5WVeWpcV2ABpAKw-10" target="rOqVH5WVeWpcV2ABpAKw-12">
          <mxGeometry relative="1" as="geometry" />
        </mxCell>
        <mxCell id="rOqVH5WVeWpcV2ABpAKw-26" style="edgeStyle=orthogonalEdgeStyle;rounded=0;orthogonalLoop=1;jettySize=auto;html=1;exitX=0.5;exitY=1;exitDx=0;exitDy=0;entryX=0.5;entryY=0;entryDx=0;entryDy=0;" edge="1" parent="1" source="rOqVH5WVeWpcV2ABpAKw-11" target="rOqVH5WVeWpcV2ABpAKw-16">
          <mxGeometry relative="1" as="geometry" />
        </mxCell>
        <mxCell id="rOqVH5WVeWpcV2ABpAKw-27" style="edgeStyle=orthogonalEdgeStyle;rounded=0;orthogonalLoop=1;jettySize=auto;html=1;exitX=0;exitY=0.5;exitDx=0;exitDy=0;" edge="1" parent="1" source="rOqVH5WVeWpcV2ABpAKw-11" target="rOqVH5WVeWpcV2ABpAKw-14">
          <mxGeometry relative="1" as="geometry" />
        </mxCell>
        <mxCell id="rOqVH5WVeWpcV2ABpAKw-29" style="edgeStyle=orthogonalEdgeStyle;rounded=0;orthogonalLoop=1;jettySize=auto;html=1;exitX=1;exitY=0.5;exitDx=0;exitDy=0;" edge="1" parent="1" source="rOqVH5WVeWpcV2ABpAKw-12" target="rOqVH5WVeWpcV2ABpAKw-15">
          <mxGeometry relative="1" as="geometry" />
        </mxCell>
        <mxCell id="rOqVH5WVeWpcV2ABpAKw-30" style="edgeStyle=orthogonalEdgeStyle;rounded=0;orthogonalLoop=1;jettySize=auto;html=1;exitX=0;exitY=0.5;exitDx=0;exitDy=0;entryX=0.5;entryY=0;entryDx=0;entryDy=0;" edge="1" parent="1" source="rOqVH5WVeWpcV2ABpAKw-12" target="rOqVH5WVeWpcV2ABpAKw-17">
          <mxGeometry relative="1" as="geometry" />
        </mxCell>
        <mxCell id="rOqVH5WVeWpcV2ABpAKw-31" style="edgeStyle=orthogonalEdgeStyle;rounded=0;orthogonalLoop=1;jettySize=auto;html=1;exitX=1;exitY=0.5;exitDx=0;exitDy=0;entryX=0.25;entryY=0;entryDx=0;entryDy=0;" edge="1" parent="1" source="rOqVH5WVeWpcV2ABpAKw-11" target="rOqVH5WVeWpcV2ABpAKw-17">
          <mxGeometry relative="1" as="geometry" />
        </mxCell>
        <mxCell id="rOqVH5WVeWpcV2ABpAKw-32" style="edgeStyle=orthogonalEdgeStyle;rounded=0;orthogonalLoop=1;jettySize=auto;html=1;exitX=0.5;exitY=1;exitDx=0;exitDy=0;" edge="1" parent="1" source="rOqVH5WVeWpcV2ABpAKw-15" target="rOqVH5WVeWpcV2ABpAKw-21">
          <mxGeometry relative="1" as="geometry" />
        </mxCell>
        <mxCell id="rOqVH5WVeWpcV2ABpAKw-33" style="edgeStyle=orthogonalEdgeStyle;rounded=0;orthogonalLoop=1;jettySize=auto;html=1;exitX=0.5;exitY=1;exitDx=0;exitDy=0;entryX=0.5;entryY=0;entryDx=0;entryDy=0;" edge="1" parent="1" source="rOqVH5WVeWpcV2ABpAKw-17" target="rOqVH5WVeWpcV2ABpAKw-20">
          <mxGeometry relative="1" as="geometry" />
        </mxCell>
        <mxCell id="rOqVH5WVeWpcV2ABpAKw-34" style="edgeStyle=orthogonalEdgeStyle;rounded=0;orthogonalLoop=1;jettySize=auto;html=1;exitX=0.5;exitY=1;exitDx=0;exitDy=0;" edge="1" parent="1" source="rOqVH5WVeWpcV2ABpAKw-16" target="rOqVH5WVeWpcV2ABpAKw-19">
          <mxGeometry relative="1" as="geometry" />
        </mxCell>
        <mxCell id="rOqVH5WVeWpcV2ABpAKw-35" style="edgeStyle=orthogonalEdgeStyle;rounded=0;orthogonalLoop=1;jettySize=auto;html=1;exitX=0.5;exitY=1;exitDx=0;exitDy=0;entryX=0.5;entryY=0;entryDx=0;entryDy=0;" edge="1" parent="1" source="rOqVH5WVeWpcV2ABpAKw-14" target="rOqVH5WVeWpcV2ABpAKw-18">
          <mxGeometry relative="1" as="geometry" />
        </mxCell>
      </root>
    </mxGraphModel>
  </diagram>
</mxfile>
